<svg xmlns="http://www.w3.org/2000/svg" width="800" height="800" viewBox="0 0 64 64"><g fill="#231F20"><path d="M60 0H4C1.789 0 0 1.789 0 4v56c0 2.211 1.789 4 4 4h56c2.211 0 4-1.789 4-4V4c0-2.211-1.789-4-4-4zm2 60a2 2 0 01-2 2H4a2 2 0 01-2-2V4a2 2 0 012-2h56a2 2 0 012 2v56z"/><path d="M59 4H5a1 1 0 00-1 1v38a1 1 0 001 1h13v5a1 1 0 001 1h26a1 1 0 001-1v-5h13a1 1 0 001-1V5a1 1 0 00-1-1zm-1 38H45a1 1 0 00-1 1v5H20v-5a1 1 0 00-1-1H6V6h52v36z"/><path d="M15 16h34a1 1 0 100-2H15a1 1 0 100 2zm0 12h34a1 1 0 100-2H15a1 1 0 100 2zm0 6h34a1 1 0 100-2H15a1 1 0 100 2zm0-12h34a1 1 0 100-2H15a1 1 0 100 2z"/></g></svg>1-1v-5
		h13c0.553,0,1-0.447,1-1V5C60,4.447,59.553,4,59,4z M58,42H45c-0.553,0-1,0.447-1,1v5H20v-5c0-0.553-0.447-1-1-1H6V6h52V42z"/>
	<path fill="#231F20" d="M15,16h34c0.553,0,1-0.447,1-1s-0.447-1-1-1H15c-0.553,0-1,0.447-1,1S14.447,16,15,16z"/>
	<path fill="#231F20" d="M15,28h34c0.553,0,1-0.447,1-1s-0.447-1-1-1H15c-0.553,0-1,0.447-1,1S14.447,28,15,28z"/>
	<path fill="#231F20" d="M15,34h34c0.553,0,1-0.447,1-1s-0.447-1-1-1H15c-0.553,0-1,0.447-1,1S14.447,34,15,34z"/>
	<path fill="#231F20" d="M15,22h34c0.553,0,1-0.447,1-1s-0.447-1-1-1H15c-0.553,0-1,0.447-1,1S14.447,22,15,22z"/>
</g>
</svg>
