<svg width="24" height="24" fill="none" xmlns="http://www.w3.org/2000/svg"><path d="M5.5 10a3.5 3.5 0 100-7 3.5 3.5 0 000 7zm0 11a3.5 3.5 0 100-7 3.5 3.5 0 000 7zM22 6L8.65 15.98M22 17.97L8.65 7.98" stroke="#292D32" stroke-width="1.5" stroke-linecap="round" stroke-linejoin="round"/></svg>>
<path d="M5.5 21C7.433 21 9 19.433 9 17.5C9 15.567 7.433 14 5.5 14C3.567 14 2 15.567 2 17.5C2 19.433 3.567 21 5.5 21Z" stroke="#292D32" stroke-width="1.5" stroke-linecap="round" stroke-linejoin="round"/>
<path d="M22 6L8.64999 15.98" stroke="#292D32" stroke-width="1.5" stroke-linecap="round" stroke-linejoin="round"/>
<path d="M22 17.97L8.64999 7.97998" stroke="#292D32" stroke-width="1.5" stroke-linecap="round" stroke-linejoin="round"/>
</svg>
