<svg xmlns="http://www.w3.org/2000/svg" width="800" height="800" viewBox="0 0 64 64"><g fill="#231F20"><path d="M60 0H4C1.789 0 0 1.789 0 4v56c0 2.211 1.789 4 4 4h56c2.211 0 4-1.789 4-4V4c0-2.211-1.789-4-4-4zm2 60a2 2 0 01-2 2H4a2 2 0 01-2-2V4a2 2 0 012-2h56a2 2 0 012 2v56z"/><path d="M59 4H5a1 1 0 00-1 1v38a1 1 0 001 1h13v5a1 1 0 001 1h26a1 1 0 001-1v-5h13a1 1 0 001-1V5a1 1 0 00-1-1zm-1 38H45a1 1 0 00-1 1v5H20v-5a1 1 0 00-1-1H6V6h52v36z"/><path d="M15 16h34a1 1 0 100-2H15a1 1 0 100 2zm0 12h34a1 1 0 100-2H15a1 1 0 100 2zm0 6h34a1 1 0 100-2H15a1 1 0 100 2zm0-12h34a1 1 0 100-2H15a1 1 0 100 2z"/></g></svg>